<svg width="720" height="180" viewBox="0 0 720 180" fill="none" xmlns="http://www.w3.org/2000/svg">
  <rect width="720" height="180" rx="32" fill="#0F1117"/>
  <rect x="24" y="24" width="132" height="132" rx="34" fill="url(#paint0_linear)"/>
  <rect x="50" y="38" width="80" height="108" rx="22" fill="#0B0E14"/>
  <rect x="63" y="56" width="54" height="42" rx="12" fill="#9FE8FF"/>
  <path d="M78 93L90 104L104 93" stroke="#0B0E14" stroke-width="6" stroke-linecap="round" stroke-linejoin="round"/>
  <rect x="72" y="112" width="36" height="8" rx="4" fill="#3B4456"/>
  <circle cx="90" cy="132" r="6" fill="#3B4456"/>
  <path d="M202 66H379.4" stroke="#8B93A7" stroke-width="2" stroke-linecap="round"/>
  <path d="M202 114H334.6" stroke="#8B93A7" stroke-width="2" stroke-linecap="round"/>
  <path d="M402 115C402 85.1766 426.177 61 456 61H490.5C520.323 61 544.5 85.1766 544.5 115V118.5C544.5 148.323 520.323 172.5 490.5 172.5H456C426.177 172.5 402 148.323 402 118.5V115Z" fill="#161B26"/>
  <path d="M441 117C441 103.193 452.193 92 466 92H481C494.807 92 506 103.193 506 117V118C506 131.807 494.807 143 481 143H469.5L455 154V143.5C447.268 139.218 441 129.762 441 119.5V117Z" fill="url(#paint1_linear)"/>
  <path d="M564 66H641" stroke="#8B93A7" stroke-width="2" stroke-linecap="round"/>
  <path d="M564 114H686" stroke="#8B93A7" stroke-width="2" stroke-linecap="round"/>
  <path d="M202 95.5H686" stroke="#232A39" stroke-width="1.5"/>
  <text x="202" y="86" fill="#F3F6FB" font-family="SF Pro Display, Inter, Arial, sans-serif" font-size="50" font-weight="700" letter-spacing="0.4">PhoneLocal</text>
  <text x="202" y="134" fill="#A9B1C2" font-family="SF Pro Text, Inter, Arial, sans-serif" font-size="24" font-weight="500">Discord bot shell for local Ollama workflows</text>
  <defs>
    <linearGradient id="paint0_linear" x1="32" y1="32" x2="148" y2="148" gradientUnits="userSpaceOnUse">
      <stop stop-color="#6A7BFF"/>
      <stop offset="0.5" stop-color="#7C5CFF"/>
      <stop offset="1" stop-color="#53D1FF"/>
    </linearGradient>
    <linearGradient id="paint1_linear" x1="446" y1="95" x2="502" y2="150" gradientUnits="userSpaceOnUse">
      <stop stop-color="#A78BFA"/>
      <stop offset="1" stop-color="#6EE7F9"/>
    </linearGradient>
  </defs>
</svg>
